<?xml version="1.0" standalone="no"?>
<!DOCTYPE svg PUBLIC "-//W3C//DTD SVG 20010904//EN"
 "http://www.w3.org/TR/2001/REC-SVG-20010904/DTD/svg10.dtd">
<svg version="1.0" xmlns="http://www.w3.org/2000/svg"
 width="88.000000pt" height="88.000000pt" viewBox="0 0 88.000000 88.000000"
 preserveAspectRatio="xMidYMid meet">

<g transform="translate(0.000000,88.000000) scale(0.100000,-0.100000)"
fill="#000000" stroke="none">
<path d="M0 440 l0 -440 440 0 440 0 0 440 0 440 -440 0 -440 0 0 -440z m516
175 c-9 -9 -17 -22 -17 -28 -1 -7 -2 -21 -3 -32 -2 -24 -27 -107 -35 -117 -9
-10 -71 19 -71 35 0 7 20 37 45 66 25 29 45 61 45 71 0 22 31 43 44 30 5 -5 2
-16 -8 -25z m-58 -23 c2 -7 -3 -12 -10 -12 -8 0 -15 7 -15 15 0 18 19 15 25
-3z m-188 -22 c12 -8 11 -10 -7 -10 -13 0 -23 5 -23 10 0 13 11 13 30 0z m67
-6 c-3 -3 -12 -4 -19 -1 -8 3 -5 6 6 6 11 1 17 -2 13 -5z m30 -156 c-3 -8 -6
-5 -6 6 -1 11 2 17 5 13 3 -3 4 -12 1 -19z m283 -23 c7 -8 8 -15 2 -15 -5 0
-15 7 -22 15 -7 8 -8 15 -2 15 5 0 15 -7 22 -15z m-405 -201 c-23 -23 -30 -10
-8 15 10 12 19 17 21 11 2 -5 -4 -17 -13 -26z m152 -34 c0 -16 -4 -30 -9 -30
-9 0 -11 22 -2 44 9 23 11 20 11 -14z"/>
</g>
</svg>
